<mxfile host="app.diagrams.net" modified="2021-10-27T04:05:09.064Z" agent="5.0 (Windows NT 10.0; Win64; x64) AppleWebKit/537.36 (KHTML, like Gecko) Chrome/95.0.4638.54 Safari/537.36" etag="hUQuizZX8l0WAC8g111E" version="15.5.4" type="github">
  <diagram id="_xH0tF0x8FdbTojQuO9B" name="Page-1">
    <mxGraphModel dx="1865" dy="579" grid="1" gridSize="10" guides="1" tooltips="1" connect="1" arrows="1" fold="1" page="1" pageScale="1" pageWidth="827" pageHeight="1169" math="0" shadow="0">
      <root>
        <mxCell id="0" />
        <mxCell id="1" parent="0" />
        <mxCell id="_DBzP0QeqDcCKglwQ3ss-2" value="" style="swimlane;startSize=0;" vertex="1" parent="1">
          <mxGeometry x="10" y="90" width="640" height="540" as="geometry" />
        </mxCell>
        <mxCell id="_DBzP0QeqDcCKglwQ3ss-12" value="Đưa xe vào chỗ trống và khóa xe" style="ellipse;whiteSpace=wrap;html=1;fontSize=20;" vertex="1" parent="_DBzP0QeqDcCKglwQ3ss-2">
          <mxGeometry x="190" y="250" width="140" height="100" as="geometry" />
        </mxCell>
        <mxCell id="_DBzP0QeqDcCKglwQ3ss-13" value="Tìm chỗ trống" style="ellipse;whiteSpace=wrap;html=1;fontSize=20;" vertex="1" parent="_DBzP0QeqDcCKglwQ3ss-2">
          <mxGeometry x="80" y="50" width="140" height="70" as="geometry" />
        </mxCell>
        <mxCell id="_DBzP0QeqDcCKglwQ3ss-17" value="Thanh Toán" style="ellipse;whiteSpace=wrap;html=1;fontSize=20;" vertex="1" parent="_DBzP0QeqDcCKglwQ3ss-2">
          <mxGeometry x="290" y="440" width="140" height="70" as="geometry" />
        </mxCell>
        <mxCell id="_DBzP0QeqDcCKglwQ3ss-23" value="extend" style="html=1;verticalAlign=bottom;endArrow=open;dashed=1;endSize=10;rounded=0;fontSize=20;startSize=9;" edge="1" parent="_DBzP0QeqDcCKglwQ3ss-2">
          <mxGeometry relative="1" as="geometry">
            <mxPoint x="290" y="474.5" as="sourcePoint" />
            <mxPoint x="210" y="475" as="targetPoint" />
          </mxGeometry>
        </mxCell>
        <mxCell id="_DBzP0QeqDcCKglwQ3ss-24" value="Trả Tiền" style="ellipse;whiteSpace=wrap;html=1;fontSize=20;" vertex="1" parent="_DBzP0QeqDcCKglwQ3ss-2">
          <mxGeometry x="70" y="440" width="140" height="70" as="geometry" />
        </mxCell>
        <mxCell id="_DBzP0QeqDcCKglwQ3ss-28" value="extend" style="html=1;verticalAlign=bottom;endArrow=open;dashed=1;endSize=8;rounded=0;fontSize=20;exitX=0.693;exitY=1.003;exitDx=0;exitDy=0;exitPerimeter=0;entryX=0.41;entryY=-0.002;entryDx=0;entryDy=0;entryPerimeter=0;" edge="1" parent="_DBzP0QeqDcCKglwQ3ss-2" source="_DBzP0QeqDcCKglwQ3ss-13" target="_DBzP0QeqDcCKglwQ3ss-12">
          <mxGeometry relative="1" as="geometry">
            <mxPoint x="300" y="360" as="sourcePoint" />
            <mxPoint x="351.125905213602" y="451.2962593100033" as="targetPoint" />
            <Array as="points">
              <mxPoint x="180" y="120" />
            </Array>
          </mxGeometry>
        </mxCell>
        <mxCell id="_DBzP0QeqDcCKglwQ3ss-29" value="&lt;b&gt;Trả xe&lt;/b&gt;" style="text;html=1;strokeColor=none;fillColor=none;align=center;verticalAlign=middle;whiteSpace=wrap;rounded=0;fontSize=20;" vertex="1" parent="_DBzP0QeqDcCKglwQ3ss-2">
          <mxGeometry x="300" y="10" width="120" height="30" as="geometry" />
        </mxCell>
        <mxCell id="_DBzP0QeqDcCKglwQ3ss-14" style="edgeStyle=orthogonalEdgeStyle;rounded=0;orthogonalLoop=1;jettySize=auto;html=1;exitX=0.5;exitY=0.5;exitDx=0;exitDy=0;exitPerimeter=0;entryX=-0.001;entryY=0.62;entryDx=0;entryDy=0;entryPerimeter=0;fontSize=20;" edge="1" parent="1" source="_DBzP0QeqDcCKglwQ3ss-10" target="_DBzP0QeqDcCKglwQ3ss-13">
          <mxGeometry relative="1" as="geometry" />
        </mxCell>
        <mxCell id="_DBzP0QeqDcCKglwQ3ss-15" style="edgeStyle=orthogonalEdgeStyle;rounded=0;orthogonalLoop=1;jettySize=auto;html=1;exitX=0.5;exitY=0.5;exitDx=0;exitDy=0;exitPerimeter=0;entryX=0;entryY=0.5;entryDx=0;entryDy=0;fontSize=20;" edge="1" parent="1" source="_DBzP0QeqDcCKglwQ3ss-10" target="_DBzP0QeqDcCKglwQ3ss-12">
          <mxGeometry relative="1" as="geometry" />
        </mxCell>
        <mxCell id="_DBzP0QeqDcCKglwQ3ss-25" style="edgeStyle=orthogonalEdgeStyle;rounded=0;orthogonalLoop=1;jettySize=auto;html=1;exitX=0.5;exitY=0.5;exitDx=0;exitDy=0;exitPerimeter=0;entryX=0;entryY=0.5;entryDx=0;entryDy=0;fontSize=20;startSize=9;endSize=10;" edge="1" parent="1" source="_DBzP0QeqDcCKglwQ3ss-10" target="_DBzP0QeqDcCKglwQ3ss-24">
          <mxGeometry relative="1" as="geometry" />
        </mxCell>
        <mxCell id="_DBzP0QeqDcCKglwQ3ss-10" value="User" style="shape=umlActor;verticalLabelPosition=bottom;verticalAlign=top;html=1;fontSize=20;" vertex="1" parent="1">
          <mxGeometry x="-260" y="380" width="40" height="60" as="geometry" />
        </mxCell>
        <mxCell id="_DBzP0QeqDcCKglwQ3ss-27" value="extend" style="html=1;verticalAlign=bottom;endArrow=open;dashed=1;endSize=8;rounded=0;fontSize=20;" edge="1" parent="1" target="_DBzP0QeqDcCKglwQ3ss-17">
          <mxGeometry relative="1" as="geometry">
            <mxPoint x="300" y="440" as="sourcePoint" />
            <mxPoint x="180" y="370" as="targetPoint" />
            <Array as="points" />
          </mxGeometry>
        </mxCell>
      </root>
    </mxGraphModel>
  </diagram>
</mxfile>
